<svg width="30" height="30" viewBox="0 0 30 30" fill="none" xmlns="http://www.w3.org/2000/svg">
<path d="M0 21.59V7.65C0 3.44 3.44 0 7.65 0H21.59C25.8 0 29.24 3.44 29.24 7.65V21.59C29.24 25.8 25.8 29.24 21.59 29.24H7.65C3.44 29.24 0 25.8 0 21.59Z" fill="white"/>
<path d="M19.16 9.11011C18.61 9.11011 18.16 9.56011 18.16 10.1101C18.16 10.6701 18.61 11.1201 19.16 11.1201C19.72 11.1201 20.17 10.6701 20.17 10.1101C20.16 9.56011 19.71 9.11011 19.16 9.11011Z" fill="#545EE1"/>
<path d="M14.69 10.4001C12.36 10.4001 10.47 12.2901 10.47 14.6201C10.47 16.9501 12.36 18.8401 14.69 18.8401C17.02 18.8401 18.91 16.9501 18.91 14.6201C18.91 12.2901 17.02 10.4001 14.69 10.4001ZM14.69 17.3301C13.2 17.3301 11.99 16.1201 11.99 14.6301C11.99 13.1401 13.2 11.9301 14.69 11.9301C16.18 11.9301 17.39 13.1401 17.39 14.6301C17.39 16.1201 16.18 17.3301 14.69 17.3301Z" fill="#545EE1"/>
<path d="M18.04 23.19H11.2C8.35999 23.19 6.04999 20.88 6.04999 18.04V11.2C6.04999 8.36005 8.35999 6.05005 11.2 6.05005H18.04C20.88 6.05005 23.19 8.36005 23.19 11.2V18.04C23.19 20.88 20.88 23.19 18.04 23.19ZM11.2 7.66005C9.24999 7.66005 7.65999 9.25005 7.65999 11.2V18.04C7.65999 19.99 9.24999 21.58 11.2 21.58H18.04C19.99 21.58 21.58 19.99 21.58 18.04V11.2C21.58 9.25005 19.99 7.66005 18.04 7.66005H11.2Z" fill="#545EE1"/>
</svg>
