<svg width="30" height="30" viewBox="0 0 30 30" fill="none" xmlns="http://www.w3.org/2000/svg">
<path d="M0 21.6V7.65C0 3.44 3.44 0 7.65 0H21.59C25.8 0 29.24 3.44 29.24 7.65V21.59C29.24 25.8 25.8 29.24 21.59 29.24H7.65C3.45 29.25 0 25.8 0 21.6Z" fill="white"/>
<path fill-rule="evenodd" clip-rule="evenodd" d="M13.5 17.8C13.49 17.85 13.47 17.89 13.46 17.94C12.81 20.49 12.74 21.06 12.07 22.25C11.75 22.81 11.39 23.35 10.99 23.86C10.94 23.92 10.9 23.99 10.81 23.97C10.71 23.95 10.7 23.86 10.69 23.78C10.58 23 10.52 22.23 10.55 21.44C10.58 20.42 10.71 20.07 12.03 14.54C12.05 14.46 12.03 14.39 12 14.31C11.69 13.46 11.62 12.6 11.9 11.72C12.5 9.82996 14.63 9.68996 15.01 11.25C15.24 12.21 14.63 13.47 14.16 15.34C13.77 16.88 15.58 17.97 17.13 16.85C18.56 15.82 19.11 13.34 19 11.58C18.79 8.07996 14.95 7.31996 12.51 8.44996C9.72 9.73996 9.08001 13.21 10.34 14.79C10.5 14.99 10.62 15.11 10.57 15.32C10.49 15.64 10.42 15.96 10.33 16.27C10.26 16.5 10.07 16.59 9.83 16.49C9.36 16.3 8.98001 16.01 8.66001 15.62C7.59001 14.29 7.28001 11.67 8.70001 9.44996C10.27 6.98996 13.19 5.98996 15.85 6.28996C19.03 6.64996 21.05 8.82996 21.42 11.29C21.59 12.41 21.47 15.19 19.89 17.15C18.07 19.4 15.13 19.55 13.77 18.17C13.69 18.06 13.6 17.93 13.5 17.8Z" fill="#545EE1"/>
</svg>
