<svg width="148" height="30" viewBox="0 0 148 30" fill="none" xmlns="http://www.w3.org/2000/svg">
<path d="M118 21.6V7.65C118 3.44 121.44 0 125.65 0H139.59C143.8 0 147.24 3.44 147.24 7.65V21.59C147.24 25.8 143.8 29.24 139.59 29.24H125.65C121.44 29.25 118 25.8 118 21.6Z" fill="white"/>
<path d="M140.45 12.5C140.45 10.56 138.88 8.98999 136.94 8.98999H127.96C126.02 8.98999 124.45 10.56 124.45 12.5V16.68C124.45 18.62 126.02 20.19 127.96 20.19H136.94C138.88 20.19 140.45 18.62 140.45 16.68V12.5ZM135.17 14.9L131.14 16.89C130.98 16.98 130.45 16.86 130.45 16.68V12.59C130.45 12.41 130.99 12.29 131.15 12.38L135 14.48C135.16 14.58 135.33 14.81 135.17 14.9Z" fill="#545EE1"/>
<path d="M39 21.59V7.65C39 3.44 42.44 0 46.65 0H60.59C64.8 0 68.24 3.44 68.24 7.65V21.59C68.24 25.8 64.8 29.24 60.59 29.24H46.65C42.44 29.24 39 25.8 39 21.59Z" fill="white"/>
<path d="M58.16 9.11011C57.61 9.11011 57.16 9.56011 57.16 10.1101C57.16 10.6701 57.61 11.1201 58.16 11.1201C58.72 11.1201 59.17 10.6701 59.17 10.1101C59.16 9.56011 58.71 9.11011 58.16 9.11011Z" fill="#545EE1"/>
<path d="M53.69 10.4001C51.36 10.4001 49.47 12.2901 49.47 14.6201C49.47 16.9501 51.36 18.8401 53.69 18.8401C56.02 18.8401 57.91 16.9501 57.91 14.6201C57.91 12.2901 56.02 10.4001 53.69 10.4001ZM53.69 17.3301C52.2 17.3301 50.99 16.1201 50.99 14.6301C50.99 13.1401 52.2 11.9301 53.69 11.9301C55.18 11.9301 56.39 13.1401 56.39 14.6301C56.39 16.1201 55.18 17.3301 53.69 17.3301Z" fill="#545EE1"/>
<path d="M57.04 23.19H50.2C47.36 23.19 45.05 20.88 45.05 18.04V11.2C45.05 8.36005 47.36 6.05005 50.2 6.05005H57.04C59.88 6.05005 62.19 8.36005 62.19 11.2V18.04C62.19 20.88 59.88 23.19 57.04 23.19ZM50.2 7.66005C48.25 7.66005 46.66 9.25005 46.66 11.2V18.04C46.66 19.99 48.25 21.58 50.2 21.58H57.04C58.99 21.58 60.58 19.99 60.58 18.04V11.2C60.58 9.25005 58.99 7.66005 57.04 7.66005H50.2Z" fill="#545EE1"/>
<path d="M79 21.59V7.65C79 3.44 82.44 0 86.65 0H100.59C104.8 0 108.24 3.44 108.24 7.65V21.59C108.24 25.8 104.8 29.24 100.59 29.24H95.9L93.45 28.64L91.34 29.24H86.65C82.44 29.24 79 25.8 79 21.59Z" fill="white"/>
<path d="M99.31 19.3299L99.96 15.0999H95.9V12.3599C95.9 11.1999 96.47 10.0799 98.28 10.0799H100.12V6.47994C100.12 6.47994 98.45 6.18994 96.85 6.18994C93.51 6.18994 91.33 8.20994 91.33 11.8799V15.0999H87.62V19.3299H91.33V29.2399H95.9V19.3299H99.31Z" fill="#545EE1"/>
<path d="M0 21.6V7.65C0 3.44 3.44 0 7.65 0H21.59C25.8 0 29.24 3.44 29.24 7.65V21.59C29.24 25.8 25.8 29.24 21.59 29.24H7.65C3.45 29.25 0 25.8 0 21.6Z" fill="white"/>
<path fill-rule="evenodd" clip-rule="evenodd" d="M13.5 17.8C13.49 17.85 13.47 17.89 13.46 17.94C12.81 20.49 12.74 21.06 12.07 22.25C11.75 22.81 11.39 23.35 10.99 23.86C10.94 23.92 10.9 23.99 10.81 23.97C10.71 23.95 10.7 23.86 10.69 23.78C10.58 23 10.52 22.23 10.55 21.44C10.58 20.42 10.71 20.07 12.03 14.54C12.05 14.46 12.03 14.39 12 14.31C11.69 13.46 11.62 12.6 11.9 11.72C12.5 9.82996 14.63 9.68996 15.01 11.25C15.24 12.21 14.63 13.47 14.16 15.34C13.77 16.88 15.58 17.97 17.13 16.85C18.56 15.82 19.11 13.34 19 11.58C18.79 8.07996 14.95 7.31996 12.51 8.44996C9.72 9.73996 9.08001 13.21 10.34 14.79C10.5 14.99 10.62 15.11 10.57 15.32C10.49 15.64 10.42 15.96 10.33 16.27C10.26 16.5 10.07 16.59 9.83 16.49C9.36 16.3 8.98001 16.01 8.66001 15.62C7.59001 14.29 7.28001 11.67 8.70001 9.44996C10.27 6.98996 13.19 5.98996 15.85 6.28996C19.03 6.64996 21.05 8.82996 21.42 11.29C21.59 12.41 21.47 15.19 19.89 17.15C18.07 19.4 15.13 19.55 13.77 18.17C13.69 18.06 13.6 17.93 13.5 17.8Z" fill="#545EE1"/>
</svg>
